# xmcd
#
# Track frame offsets:
#	150
#	49188
#	110000
#	137643
#	163298
#	212041
#	229850
#	259167
#	286829
#	304113
#
# Disc length: 4470 seconds
#
# Revision: 1
# Processed by: cddbd v1.4PL0 Copyright (c) Steve Scherf et al.
# Submitted via: audiograbber 1.81.03
#
DISCID=9411740a
DTITLE=Vv. Aa. Sugarhill Rec. - Sugarhill Club Classics III -back to the old sc
DTITLE=hool
DYEAR=2001
DGENRE=Rap
TTITLE0=The Sequence - Funk you up
TTITLE1=Funky 4+1 - Rapping and rocking the house
TTITLE2=West Street Mob - Get up and dance
TTITLE3=Crash Crew - On the radio
TTITLE4=Grandmaster Flash - Flash to the beat
TTITLE5=Kool Moe Dee - Do you know what time it is?
TTITLE6=Farrari - Simon says dance
TTITLE7=Fine Quality feat. Cuz - Aah dance
TTITLE8=Positive Force - Tell me what you see
TTITLE9=The Sugarhill Gang - The lover in you
EXTD=
EXTT0=
EXTT1=
EXTT2=
EXTT3=
EXTT4=
EXTT5=
EXTT6=
EXTT7=
EXTT8=
EXTT9=
PLAYORDER=
